<svg width="24" height="21" viewBox="0 0 24 21" fill="none" xmlns="http://www.w3.org/2000/svg">
<path d="M21.3989 2.24614C20.8456 1.69257 20.1886 1.25343 19.4655 0.953819C18.7425 0.654209 17.9674 0.5 17.1847 0.5C16.402 0.5 15.627 0.654209 14.9039 0.953819C14.1809 1.25343 13.5239 1.69257 12.9706 2.24614L11.8222 3.39448L10.6739 2.24614C9.55623 1.12848 8.04035 0.500579 6.45973 0.500579C4.87911 0.500579 3.36323 1.12848 2.24557 2.24614C1.1279 3.36381 0.5 4.87969 0.5 6.46031C0.5 8.04093 1.1279 9.55681 2.24557 10.6745L3.3939 11.8228L11.8222 20.2511L20.2506 11.8228L21.3989 10.6745C21.9525 10.1212 22.3916 9.46419 22.6912 8.74111C22.9908 8.01803 23.145 7.24301 23.145 6.46031C23.145 5.67762 22.9908 4.90259 22.6912 4.17951C22.3916 3.45643 21.9525 2.79946 21.3989 2.24614Z" fill="#F4C550" stroke="#F4C550" stroke-linecap="round" stroke-linejoin="round"/>
</svg>
