<svg width="9" height="14" viewBox="0 0 9 14" fill="none" xmlns="http://www.w3.org/2000/svg">
<path d="M7.41667 2.88333C7.41667 2.1366 7.41667 1.76323 7.27134 1.47801C7.14351 1.22713 6.93954 1.02316 6.68865 0.895325C6.40344 0.75 6.03007 0.75 5.28333 0.75H5.01667C3.52319 0.75 2.77646 0.75 2.20603 1.04065C1.70426 1.29631 1.29631 1.70426 1.04065 2.20603C0.75 2.77646 0.75 3.52319 0.75 5.01667V12.75L0.816703 12.6499C1.2798 11.9553 1.51135 11.608 1.81727 11.3565C2.08809 11.1339 2.40016 10.9669 2.7356 10.8651C3.1145 10.75 3.53193 10.75 4.36678 10.75H5.28333C6.03007 10.75 6.40344 10.75 6.68865 10.6047C6.93954 10.4768 7.14351 10.2729 7.27134 10.022C7.41667 9.73677 7.41667 9.3634 7.41667 8.61667V2.88333Z" stroke="black" stroke-width="1.5" stroke-linecap="round" stroke-linejoin="round"/>
</svg>
