<svg width="9" height="14" viewBox="0 0 9 14" fill="none" xmlns="http://www.w3.org/2000/svg">
<path d="M0.75 2.88333C0.75 2.1366 0.75 1.76323 0.895325 1.47801C1.02316 1.22713 1.22713 1.02316 1.47801 0.895325C1.76323 0.75 2.1366 0.75 2.88333 0.75H3.15C4.64347 0.75 5.39021 0.75 5.96064 1.04065C6.46241 1.29631 6.87035 1.70426 7.12602 2.20603C7.41667 2.77646 7.41667 3.52319 7.41667 5.01667V12.75L7.34996 12.6499C6.88687 11.9553 6.65532 11.608 6.3494 11.3565C6.07857 11.1339 5.76651 10.9669 5.43107 10.8651C5.05217 10.75 4.63474 10.75 3.79988 10.75H2.88333C2.1366 10.75 1.76323 10.75 1.47801 10.6047C1.22713 10.4768 1.02316 10.2729 0.895325 10.022C0.75 9.73677 0.75 9.3634 0.75 8.61667V2.88333Z" stroke="black" stroke-width="1.5" stroke-linecap="round" stroke-linejoin="round"/>
</svg>
